<svg xmlns="http://www.w3.org/2000/svg" xmlns:xlink="http://www.w3.org/1999/xlink" width="1000" zoomAndPan="magnify" viewBox="0 0 750 374.999991" height="500" preserveAspectRatio="xMidYMid meet" version="1.0"><defs><g/></defs><rect x="-75" width="900" fill="#ffffff" y="-37.499999" height="449.999989" fill-opacity="1"/><rect x="-75" width="900" fill="#ffffff" y="-37.499999" height="449.999989" fill-opacity="1"/><g fill="#000000" fill-opacity="1"><g transform="translate(36.855475, 207.399984)"><g><path d="M 33.234375 -56.796875 L 42.59375 -56.796875 C 43.539062 -56.796875 44.015625 -56.320312 44.015625 -55.375 L 44.015625 -1.421875 C 44.015625 -0.472656 43.539062 0 42.59375 0 L 36 0 C 35.050781 0 34.578125 -0.472656 34.578125 -1.421875 L 34.578125 -33.375 L 34.078125 -33.375 L 27.046875 -1.28125 C 26.859375 -0.425781 26.335938 0 25.484375 0 L 22.015625 0 C 21.203125 0 20.679688 -0.425781 20.453125 -1.28125 L 13.421875 -33.375 L 12.921875 -33.375 L 12.921875 -1.421875 C 12.921875 -0.472656 12.445312 0 11.5 0 L 4.96875 0 C 4.019531 0 3.546875 -0.472656 3.546875 -1.421875 L 3.546875 -55.375 C 3.546875 -56.320312 4.019531 -56.796875 4.96875 -56.796875 L 14.34375 -56.796875 C 15.195312 -56.796875 15.71875 -56.367188 15.90625 -55.515625 L 23.78125 -20.15625 L 31.671875 -55.515625 C 31.898438 -56.367188 32.421875 -56.796875 33.234375 -56.796875 Z M 33.234375 -56.796875 "/></g></g></g><g fill="#000000" fill-opacity="1"><g transform="translate(84.420231, 207.399984)"><g><path d="M 3.546875 -10.21875 L 3.546875 -39.46875 C 3.546875 -42.832031 4.421875 -45.378906 6.171875 -47.109375 C 7.921875 -48.835938 10.457031 -49.703125 13.78125 -49.703125 L 21.71875 -49.703125 C 25.082031 -49.703125 27.628906 -48.835938 29.359375 -47.109375 C 31.085938 -45.378906 31.953125 -42.832031 31.953125 -39.46875 L 31.953125 -10.21875 C 31.953125 -6.90625 31.085938 -4.375 29.359375 -2.625 C 27.628906 -0.875 25.082031 0 21.71875 0 L 13.78125 0 C 10.457031 0 7.921875 -0.875 6.171875 -2.625 C 4.421875 -4.375 3.546875 -6.90625 3.546875 -10.21875 Z M 15.625 -9.15625 L 20.15625 -9.15625 C 22.050781 -9.15625 23 -10.101562 23 -12 L 23 -37.703125 C 23 -39.597656 22.050781 -40.546875 20.15625 -40.546875 L 15.625 -40.546875 C 13.726562 -40.546875 12.78125 -39.597656 12.78125 -37.703125 L 12.78125 -12 C 12.78125 -10.101562 13.726562 -9.15625 15.625 -9.15625 Z M 15.625 -9.15625 "/></g></g></g><g fill="#000000" fill-opacity="1"><g transform="translate(119.916311, 207.399984)"><g><path d="M 24 -49.703125 L 30.53125 -49.703125 C 30.90625 -49.703125 31.234375 -49.554688 31.515625 -49.265625 C 31.804688 -48.984375 31.953125 -48.65625 31.953125 -48.28125 L 31.953125 -10.21875 C 31.953125 -6.90625 31.085938 -4.375 29.359375 -2.625 C 27.628906 -0.875 25.082031 0 21.71875 0 L 13.78125 0 C 10.457031 0 7.921875 -0.875 6.171875 -2.625 C 4.421875 -4.375 3.546875 -6.90625 3.546875 -10.21875 L 3.546875 -48.28125 C 3.546875 -48.65625 3.6875 -48.984375 3.96875 -49.265625 C 4.257812 -49.554688 4.59375 -49.703125 4.96875 -49.703125 L 11.78125 -49.703125 C 12.164062 -49.703125 12.5 -49.554688 12.78125 -49.265625 C 13.0625 -48.984375 13.203125 -48.65625 13.203125 -48.28125 L 13.203125 -12.21875 C 13.203125 -10.320312 14.148438 -9.375 16.046875 -9.375 L 19.734375 -9.375 C 21.628906 -9.375 22.578125 -10.320312 22.578125 -12.21875 L 22.578125 -48.28125 C 22.578125 -48.65625 22.71875 -48.984375 23 -49.265625 C 23.289062 -49.554688 23.625 -49.703125 24 -49.703125 Z M 24 -49.703125 "/></g></g></g><g fill="#000000" fill-opacity="1"><g transform="translate(155.412391, 207.399984)"><g><path d="M 26.0625 -49.703125 L 32.734375 -49.703125 C 33.484375 -49.703125 33.859375 -49.320312 33.859375 -48.5625 L 33.859375 -1.140625 C 33.859375 -0.378906 33.484375 0 32.734375 0 L 27.125 0 C 26.550781 0 26.125 -0.304688 25.84375 -0.921875 L 12.5 -28.046875 L 12.5 -1.140625 C 12.5 -0.378906 12.117188 0 11.359375 0 L 4.6875 0 C 3.925781 0 3.546875 -0.378906 3.546875 -1.140625 L 3.546875 -48.5625 C 3.546875 -49.320312 3.925781 -49.703125 4.6875 -49.703125 L 10.296875 -49.703125 C 10.859375 -49.703125 11.285156 -49.394531 11.578125 -48.78125 L 24.921875 -21.65625 L 24.921875 -48.5625 C 24.921875 -49.320312 25.300781 -49.703125 26.0625 -49.703125 Z M 26.0625 -49.703125 "/></g></g></g><g fill="#000000" fill-opacity="1"><g transform="translate(192.825265, 207.399984)"><g><path d="M 29.390625 -49.703125 L 3.265625 -49.703125 C 2.503906 -49.703125 2.125 -49.320312 2.125 -48.5625 L 2.125 -41.46875 C 2.125 -40.707031 2.503906 -40.328125 3.265625 -40.328125 L 11.5 -40.328125 L 11.5 -1.140625 C 11.5 -0.378906 11.878906 0 12.640625 0 L 20.015625 0 C 20.773438 0 21.15625 -0.378906 21.15625 -1.140625 L 21.15625 -40.328125 L 29.390625 -40.328125 C 30.148438 -40.328125 30.53125 -40.707031 30.53125 -41.46875 L 30.53125 -48.5625 C 30.53125 -49.320312 30.148438 -49.703125 29.390625 -49.703125 Z M 29.390625 -49.703125 "/></g></g></g><g fill="#000000" fill-opacity="1"><g transform="translate(225.481665, 207.399984)"><g/></g></g><g fill="#000000" fill-opacity="1"><g transform="translate(243.229699, 207.399984)"><g><path d="M 31.875 -55.671875 L 31.875 -48.5625 C 31.875 -47.757812 31.5 -47.359375 30.75 -47.359375 L 13 -47.359375 L 13 -33.15625 L 26.546875 -33.15625 C 27.304688 -33.15625 27.6875 -32.753906 27.6875 -31.953125 L 27.6875 -24.921875 C 27.6875 -24.117188 27.304688 -23.71875 26.546875 -23.71875 L 13 -23.71875 L 13 -9.375 L 30.75 -9.375 C 31.5 -9.375 31.875 -8.992188 31.875 -8.234375 L 31.875 -1.140625 C 31.875 -0.378906 31.5 0 30.75 0 L 4.609375 0 C 3.898438 0 3.546875 -0.378906 3.546875 -1.140625 L 3.546875 -55.671875 C 3.546875 -56.421875 3.898438 -56.796875 4.609375 -56.796875 L 30.75 -56.796875 C 31.5 -56.796875 31.875 -56.421875 31.875 -55.671875 Z M 31.875 -55.671875 "/></g></g></g><g fill="#000000" fill-opacity="1"><g transform="translate(277.944846, 207.399984)"><g><path d="M 27.1875 -49.703125 L 33.65625 -49.703125 C 34.738281 -49.703125 35.164062 -49.179688 34.9375 -48.140625 L 23.640625 -1.28125 C 23.453125 -0.425781 22.929688 0 22.078125 0 L 14.984375 0 C 14.179688 0 13.660156 -0.425781 13.421875 -1.28125 L 2.203125 -48.140625 C 1.960938 -49.179688 2.390625 -49.703125 3.484375 -49.703125 L 9.9375 -49.703125 C 10.789062 -49.703125 11.3125 -49.273438 11.5 -48.421875 L 18.53125 -16.328125 L 25.625 -48.421875 C 25.863281 -49.273438 26.382812 -49.703125 27.1875 -49.703125 Z M 27.1875 -49.703125 "/></g></g></g><g fill="#000000" fill-opacity="1"><g transform="translate(314.363811, 207.399984)"><g><path d="M 31.875 -48.5625 L 31.875 -41.46875 C 31.875 -40.65625 31.5 -40.25 30.75 -40.25 L 13.203125 -40.25 L 13.203125 -29.328125 L 26.546875 -29.328125 C 27.304688 -29.328125 27.6875 -28.921875 27.6875 -28.109375 L 27.6875 -21.09375 C 27.6875 -20.28125 27.304688 -19.875 26.546875 -19.875 L 13.203125 -19.875 L 13.203125 -9.375 L 30.75 -9.375 C 31.5 -9.375 31.875 -8.992188 31.875 -8.234375 L 31.875 -1.140625 C 31.875 -0.378906 31.5 0 30.75 0 L 4.609375 0 C 3.898438 0 3.546875 -0.378906 3.546875 -1.140625 L 3.546875 -48.5625 C 3.546875 -49.320312 3.898438 -49.703125 4.609375 -49.703125 L 30.75 -49.703125 C 31.5 -49.703125 31.875 -49.320312 31.875 -48.5625 Z M 31.875 -48.5625 "/></g></g></g><g fill="#000000" fill-opacity="1"><g transform="translate(349.078958, 207.399984)"><g><path d="M 31.953125 -39.46875 L 31.953125 -25.203125 C 31.953125 -21.085938 30.625 -18.203125 27.96875 -16.546875 L 31.671875 -1.28125 C 31.898438 -0.425781 31.566406 0 30.671875 0 L 23.71875 0 C 23.050781 0 22.644531 -0.332031 22.5 -1 L 19.09375 -14.984375 L 12.78125 -14.984375 L 12.78125 -1.140625 C 12.78125 -0.378906 12.398438 0 11.640625 0 L 4.6875 0 C 3.925781 0 3.546875 -0.378906 3.546875 -1.140625 L 3.546875 -48.5625 C 3.546875 -49.320312 3.925781 -49.703125 4.6875 -49.703125 L 21.71875 -49.703125 C 25.082031 -49.703125 27.628906 -48.835938 29.359375 -47.109375 C 31.085938 -45.378906 31.953125 -42.832031 31.953125 -39.46875 Z M 12.78125 -24.140625 L 19.875 -24.140625 C 21.769531 -24.140625 22.71875 -25.085938 22.71875 -26.984375 L 22.71875 -37.703125 C 22.71875 -39.597656 21.769531 -40.546875 19.875 -40.546875 L 12.78125 -40.546875 Z M 12.78125 -24.140625 "/></g></g></g><g fill="#000000" fill-opacity="1"><g transform="translate(384.575026, 207.399984)"><g><path d="M 31.875 -48.5625 L 31.875 -41.46875 C 31.875 -40.65625 31.5 -40.25 30.75 -40.25 L 13.203125 -40.25 L 13.203125 -29.328125 L 26.546875 -29.328125 C 27.304688 -29.328125 27.6875 -28.921875 27.6875 -28.109375 L 27.6875 -21.09375 C 27.6875 -20.28125 27.304688 -19.875 26.546875 -19.875 L 13.203125 -19.875 L 13.203125 -9.375 L 30.75 -9.375 C 31.5 -9.375 31.875 -8.992188 31.875 -8.234375 L 31.875 -1.140625 C 31.875 -0.378906 31.5 0 30.75 0 L 4.609375 0 C 3.898438 0 3.546875 -0.378906 3.546875 -1.140625 L 3.546875 -48.5625 C 3.546875 -49.320312 3.898438 -49.703125 4.609375 -49.703125 L 30.75 -49.703125 C 31.5 -49.703125 31.875 -49.320312 31.875 -48.5625 Z M 31.875 -48.5625 "/></g></g></g><g fill="#000000" fill-opacity="1"><g transform="translate(417.870282, 207.399984)"><g><path d="M 13.78125 -49.703125 L 21.71875 -49.703125 C 25.082031 -49.703125 27.628906 -48.835938 29.359375 -47.109375 C 31.085938 -45.378906 31.953125 -42.832031 31.953125 -39.46875 L 31.953125 -34.796875 C 31.953125 -34.035156 31.570312 -33.65625 30.8125 -33.65625 L 23.640625 -33.65625 C 22.878906 -33.65625 22.5 -34.035156 22.5 -34.796875 L 22.5 -37.765625 C 22.5 -39.660156 21.554688 -40.609375 19.671875 -40.609375 L 15.765625 -40.609375 C 13.867188 -40.609375 12.921875 -39.660156 12.921875 -37.765625 L 12.921875 -31.734375 L 30.109375 -26.203125 C 31.335938 -25.773438 31.953125 -24.898438 31.953125 -23.578125 L 31.953125 -10.21875 C 31.953125 -6.90625 31.085938 -4.375 29.359375 -2.625 C 27.628906 -0.875 25.082031 0 21.71875 0 L 13.78125 0 C 10.457031 0 7.921875 -0.875 6.171875 -2.625 C 4.421875 -4.375 3.546875 -6.90625 3.546875 -10.21875 L 3.546875 -14.84375 C 3.546875 -15.59375 3.925781 -15.96875 4.6875 -15.96875 L 11.859375 -15.96875 C 12.617188 -15.96875 13 -15.59375 13 -14.84375 L 13 -11.859375 C 13 -9.960938 13.941406 -9.015625 15.828125 -9.015625 L 19.671875 -9.015625 C 21.554688 -9.015625 22.5 -9.960938 22.5 -11.859375 L 22.5 -19.03125 L 5.46875 -24.5625 C 4.1875 -24.988281 3.546875 -25.863281 3.546875 -27.1875 L 3.546875 -39.46875 C 3.546875 -42.832031 4.421875 -45.378906 6.171875 -47.109375 C 7.921875 -48.835938 10.457031 -49.703125 13.78125 -49.703125 Z M 13.78125 -49.703125 "/></g></g></g><g fill="#000000" fill-opacity="1"><g transform="translate(451.23649, 207.399984)"><g><path d="M 29.390625 -49.703125 L 3.265625 -49.703125 C 2.503906 -49.703125 2.125 -49.320312 2.125 -48.5625 L 2.125 -41.46875 C 2.125 -40.707031 2.503906 -40.328125 3.265625 -40.328125 L 11.5 -40.328125 L 11.5 -1.140625 C 11.5 -0.378906 11.878906 0 12.640625 0 L 20.015625 0 C 20.773438 0 21.15625 -0.378906 21.15625 -1.140625 L 21.15625 -40.328125 L 29.390625 -40.328125 C 30.148438 -40.328125 30.53125 -40.707031 30.53125 -41.46875 L 30.53125 -48.5625 C 30.53125 -49.320312 30.148438 -49.703125 29.390625 -49.703125 Z M 29.390625 -49.703125 "/></g></g></g><g fill="#000000" fill-opacity="1"><g transform="translate(483.89289, 207.399984)"><g/></g></g><g fill="#000000" fill-opacity="1"><g transform="translate(501.640937, 207.399984)"><g><path d="M 13.78125 -56.796875 L 21.71875 -56.796875 C 25.082031 -56.796875 27.628906 -55.929688 29.359375 -54.203125 C 31.085938 -52.472656 31.953125 -49.929688 31.953125 -46.578125 L 31.953125 -39.046875 C 31.953125 -38.285156 31.570312 -37.90625 30.8125 -37.90625 L 23.4375 -37.90625 C 22.675781 -37.90625 22.296875 -38.285156 22.296875 -39.046875 L 22.296875 -44.59375 C 22.296875 -46.476562 21.347656 -47.421875 19.453125 -47.421875 L 16.046875 -47.421875 C 14.148438 -47.421875 13.203125 -46.476562 13.203125 -44.59375 L 13.203125 -34.796875 L 30.109375 -29.25 C 31.335938 -28.726562 31.953125 -27.851562 31.953125 -26.625 L 31.953125 -10.21875 C 31.953125 -6.90625 31.085938 -4.375 29.359375 -2.625 C 27.628906 -0.875 25.082031 0 21.71875 0 L 13.78125 0 C 10.457031 0 7.921875 -0.875 6.171875 -2.625 C 4.421875 -4.375 3.546875 -6.90625 3.546875 -10.21875 L 3.546875 -17.671875 C 3.546875 -18.429688 3.925781 -18.8125 4.6875 -18.8125 L 12.0625 -18.8125 C 12.820312 -18.8125 13.203125 -18.429688 13.203125 -17.671875 L 13.203125 -12.21875 C 13.203125 -10.320312 14.148438 -9.375 16.046875 -9.375 L 19.453125 -9.375 C 21.347656 -9.375 22.296875 -10.320312 22.296875 -12.21875 L 22.296875 -21.65625 L 5.46875 -27.1875 C 4.1875 -27.613281 3.546875 -28.488281 3.546875 -29.8125 L 3.546875 -46.578125 C 3.546875 -49.929688 4.421875 -52.472656 6.171875 -54.203125 C 7.921875 -55.929688 10.457031 -56.796875 13.78125 -56.796875 Z M 13.78125 -56.796875 "/></g></g></g><g fill="#000000" fill-opacity="1"><g transform="translate(537.137028, 207.399984)"><g><path d="M 24 -49.703125 L 30.53125 -49.703125 C 30.90625 -49.703125 31.234375 -49.554688 31.515625 -49.265625 C 31.804688 -48.984375 31.953125 -48.65625 31.953125 -48.28125 L 31.953125 -10.21875 C 31.953125 -6.90625 31.085938 -4.375 29.359375 -2.625 C 27.628906 -0.875 25.082031 0 21.71875 0 L 13.78125 0 C 10.457031 0 7.921875 -0.875 6.171875 -2.625 C 4.421875 -4.375 3.546875 -6.90625 3.546875 -10.21875 L 3.546875 -48.28125 C 3.546875 -48.65625 3.6875 -48.984375 3.96875 -49.265625 C 4.257812 -49.554688 4.59375 -49.703125 4.96875 -49.703125 L 11.78125 -49.703125 C 12.164062 -49.703125 12.5 -49.554688 12.78125 -49.265625 C 13.0625 -48.984375 13.203125 -48.65625 13.203125 -48.28125 L 13.203125 -12.21875 C 13.203125 -10.320312 14.148438 -9.375 16.046875 -9.375 L 19.734375 -9.375 C 21.628906 -9.375 22.578125 -10.320312 22.578125 -12.21875 L 22.578125 -48.28125 C 22.578125 -48.65625 22.71875 -48.984375 23 -49.265625 C 23.289062 -49.554688 23.625 -49.703125 24 -49.703125 Z M 24 -49.703125 "/></g></g></g><g fill="#000000" fill-opacity="1"><g transform="translate(572.633119, 207.399984)"><g><path d="M 33.234375 -49.703125 L 42.59375 -49.703125 C 43.539062 -49.703125 44.015625 -49.226562 44.015625 -48.28125 L 44.015625 -1.421875 C 44.015625 -0.472656 43.539062 0 42.59375 0 L 36 0 C 35.050781 0 34.578125 -0.472656 34.578125 -1.421875 L 34.578125 -29.328125 L 34.078125 -29.328125 L 27.40625 -1.203125 C 27.164062 -0.398438 26.644531 0 25.84375 0 L 21.65625 0 C 20.851562 0 20.332031 -0.398438 20.09375 -1.203125 L 13.421875 -29.328125 L 12.921875 -29.328125 L 12.921875 -1.421875 C 12.921875 -0.472656 12.445312 0 11.5 0 L 4.96875 0 C 4.019531 0 3.546875 -0.472656 3.546875 -1.421875 L 3.546875 -48.28125 C 3.546875 -49.226562 4.019531 -49.703125 4.96875 -49.703125 L 14.34375 -49.703125 C 15.144531 -49.703125 15.664062 -49.300781 15.90625 -48.5 L 23.78125 -16.828125 L 31.671875 -48.5 C 31.898438 -49.300781 32.421875 -49.703125 33.234375 -49.703125 Z M 33.234375 -49.703125 "/></g></g></g><g fill="#000000" fill-opacity="1"><g transform="translate(619.487929, 207.399984)"><g><path d="M 33.234375 -49.703125 L 42.59375 -49.703125 C 43.539062 -49.703125 44.015625 -49.226562 44.015625 -48.28125 L 44.015625 -1.421875 C 44.015625 -0.472656 43.539062 0 42.59375 0 L 36 0 C 35.050781 0 34.578125 -0.472656 34.578125 -1.421875 L 34.578125 -29.328125 L 34.078125 -29.328125 L 27.40625 -1.203125 C 27.164062 -0.398438 26.644531 0 25.84375 0 L 21.65625 0 C 20.851562 0 20.332031 -0.398438 20.09375 -1.203125 L 13.421875 -29.328125 L 12.921875 -29.328125 L 12.921875 -1.421875 C 12.921875 -0.472656 12.445312 0 11.5 0 L 4.96875 0 C 4.019531 0 3.546875 -0.472656 3.546875 -1.421875 L 3.546875 -48.28125 C 3.546875 -49.226562 4.019531 -49.703125 4.96875 -49.703125 L 14.34375 -49.703125 C 15.144531 -49.703125 15.664062 -49.300781 15.90625 -48.5 L 23.78125 -16.828125 L 31.671875 -48.5 C 31.898438 -49.300781 32.421875 -49.703125 33.234375 -49.703125 Z M 33.234375 -49.703125 "/></g></g></g><g fill="#000000" fill-opacity="1"><g transform="translate(667.052684, 207.399984)"><g><path d="M 4.6875 0 L 12.0625 0 C 12.820312 0 13.203125 -0.378906 13.203125 -1.140625 L 13.203125 -48.5625 C 13.203125 -49.320312 12.820312 -49.703125 12.0625 -49.703125 L 4.6875 -49.703125 C 3.925781 -49.703125 3.546875 -49.320312 3.546875 -48.5625 L 3.546875 -1.140625 C 3.546875 -0.378906 3.925781 0 4.6875 0 Z M 4.6875 0 "/></g></g></g><g fill="#000000" fill-opacity="1"><g transform="translate(683.096888, 207.399984)"><g><path d="M 29.390625 -49.703125 L 3.265625 -49.703125 C 2.503906 -49.703125 2.125 -49.320312 2.125 -48.5625 L 2.125 -41.46875 C 2.125 -40.707031 2.503906 -40.328125 3.265625 -40.328125 L 11.5 -40.328125 L 11.5 -1.140625 C 11.5 -0.378906 11.878906 0 12.640625 0 L 20.015625 0 C 20.773438 0 21.15625 -0.378906 21.15625 -1.140625 L 21.15625 -40.328125 L 29.390625 -40.328125 C 30.148438 -40.328125 30.53125 -40.707031 30.53125 -41.46875 L 30.53125 -48.5625 C 30.53125 -49.320312 30.148438 -49.703125 29.390625 -49.703125 Z M 29.390625 -49.703125 "/></g></g></g><g fill="#000000" fill-opacity="1"><g transform="translate(121.443825, 255.299983)"><g><path d="M 2.6875 -12.78125 C 2.6875 -14.34375 3.0625 -15.453125 3.8125 -16.109375 C 4.5625 -16.773438 5.484375 -17.109375 6.578125 -17.109375 C 7.648438 -17.109375 8.566406 -16.773438 9.328125 -16.109375 C 10.085938 -15.453125 10.46875 -14.34375 10.46875 -12.78125 C 10.46875 -11.238281 10.085938 -10.128906 9.328125 -9.453125 C 8.566406 -8.773438 7.648438 -8.4375 6.578125 -8.4375 C 5.484375 -8.4375 4.5625 -8.773438 3.8125 -9.453125 C 3.0625 -10.128906 2.6875 -11.238281 2.6875 -12.78125 Z M 2.6875 -12.78125 "/></g></g></g><g fill="#000000" fill-opacity="1"><g transform="translate(134.600856, 255.299983)"><g><path d="M 1.609375 -28 L 14.484375 -28 C 14.859375 -28 15.046875 -27.8125 15.046875 -27.4375 L 15.046875 -23.9375 C 15.046875 -23.5625 14.859375 -23.375 14.484375 -23.375 L 10.4375 -23.375 L 10.4375 -0.5625 C 10.4375 -0.1875 10.25 0 9.875 0 L 6.234375 0 C 5.859375 0 5.671875 -0.1875 5.671875 -0.5625 L 5.671875 -23.375 L 1.609375 -23.375 C 1.234375 -23.375 1.046875 -23.5625 1.046875 -23.9375 L 1.046875 -27.4375 C 1.046875 -27.8125 1.234375 -28 1.609375 -28 Z M 1.609375 -28 "/></g></g></g><g fill="#000000" fill-opacity="1"><g transform="translate(150.697222, 255.299983)"><g><path d="M 10.984375 -14.484375 L 10.984375 -23.9375 C 10.984375 -24.3125 11.171875 -24.5 11.546875 -24.5 L 15.15625 -24.5 C 15.550781 -24.5 15.75 -24.3125 15.75 -23.9375 L 15.75 -0.5625 C 15.75 -0.1875 15.550781 0 15.15625 0 L 11.546875 0 C 11.171875 0 10.984375 -0.1875 10.984375 -0.5625 L 10.984375 -9.875 L 6.515625 -9.875 L 6.515625 -0.5625 C 6.515625 -0.1875 6.328125 0 5.953125 0 L 2.34375 0 C 1.945312 0 1.75 -0.1875 1.75 -0.5625 L 1.75 -23.9375 C 1.75 -24.3125 1.945312 -24.5 2.34375 -24.5 L 5.953125 -24.5 C 6.328125 -24.5 6.515625 -24.3125 6.515625 -23.9375 L 6.515625 -14.484375 Z M 10.984375 -14.484375 "/></g></g></g><g fill="#000000" fill-opacity="1"><g transform="translate(168.193269, 255.299983)"><g><path d="M 15.71875 -23.9375 L 15.71875 -20.4375 C 15.71875 -20.039062 15.53125 -19.84375 15.15625 -19.84375 L 6.515625 -19.84375 L 6.515625 -14.453125 L 13.09375 -14.453125 C 13.46875 -14.453125 13.65625 -14.253906 13.65625 -13.859375 L 13.65625 -10.390625 C 13.65625 -9.992188 13.46875 -9.796875 13.09375 -9.796875 L 6.515625 -9.796875 L 6.515625 -4.625 L 15.15625 -4.625 C 15.53125 -4.625 15.71875 -4.4375 15.71875 -4.0625 L 15.71875 -0.5625 C 15.71875 -0.1875 15.53125 0 15.15625 0 L 2.28125 0 C 1.925781 0 1.75 -0.1875 1.75 -0.5625 L 1.75 -23.9375 C 1.75 -24.3125 1.925781 -24.5 2.28125 -24.5 L 15.15625 -24.5 C 15.53125 -24.5 15.71875 -24.3125 15.71875 -23.9375 Z M 15.71875 -23.9375 "/></g></g></g><g fill="#000000" fill-opacity="1"><g transform="translate(185.65432, 255.299983)"><g/></g></g><g fill="#000000" fill-opacity="1"><g transform="translate(194.402344, 255.299983)"><g><path d="M 21.5625 -24.5 L 24.84375 -24.5 C 25.363281 -24.5 25.585938 -24.253906 25.515625 -23.765625 L 22.15625 -0.625 C 22.082031 -0.207031 21.828125 0 21.390625 0 L 17.609375 0 C 17.210938 0 16.953125 -0.207031 16.828125 -0.625 L 13.609375 -14.984375 L 10.359375 -0.625 C 10.265625 -0.207031 10.007812 0 9.59375 0 L 5.734375 0 C 5.296875 0 5.039062 -0.222656 4.96875 -0.671875 L 1.75 -23.765625 C 1.675781 -24.253906 1.898438 -24.5 2.421875 -24.5 L 5.703125 -24.5 C 6.117188 -24.5 6.363281 -24.273438 6.4375 -23.828125 L 8.15625 -9.203125 L 8.328125 -9.203125 L 11.765625 -23.90625 C 11.878906 -24.300781 12.132812 -24.5 12.53125 -24.5 L 14.671875 -24.5 C 15.066406 -24.5 15.320312 -24.300781 15.4375 -23.90625 L 18.859375 -9.203125 L 19.046875 -9.203125 L 20.828125 -23.828125 C 20.898438 -24.273438 21.144531 -24.5 21.5625 -24.5 Z M 21.5625 -24.5 "/></g></g></g><g fill="#000000" fill-opacity="1"><g transform="translate(221.241278, 255.299983)"><g><path d="M 1.75 -5.046875 L 1.75 -19.453125 C 1.75 -21.109375 2.179688 -22.363281 3.046875 -23.21875 C 3.910156 -24.070312 5.160156 -24.5 6.796875 -24.5 L 10.703125 -24.5 C 12.359375 -24.5 13.613281 -24.070312 14.46875 -23.21875 C 15.320312 -22.363281 15.75 -21.109375 15.75 -19.453125 L 15.75 -5.046875 C 15.75 -3.410156 15.320312 -2.160156 14.46875 -1.296875 C 13.613281 -0.429688 12.359375 0 10.703125 0 L 6.796875 0 C 5.160156 0 3.910156 -0.429688 3.046875 -1.296875 C 2.179688 -2.160156 1.75 -3.410156 1.75 -5.046875 Z M 7.703125 -4.515625 L 9.9375 -4.515625 C 10.875 -4.515625 11.34375 -4.984375 11.34375 -5.921875 L 11.34375 -18.578125 C 11.34375 -19.515625 10.875 -19.984375 9.9375 -19.984375 L 7.703125 -19.984375 C 6.765625 -19.984375 6.296875 -19.515625 6.296875 -18.578125 L 6.296875 -5.921875 C 6.296875 -4.984375 6.765625 -4.515625 7.703125 -4.515625 Z M 7.703125 -4.515625 "/></g></g></g><g fill="#000000" fill-opacity="1"><g transform="translate(238.737325, 255.299983)"><g><path d="M 15.75 -19.453125 L 15.75 -12.421875 C 15.75 -10.390625 15.097656 -8.96875 13.796875 -8.15625 L 15.609375 -0.625 C 15.722656 -0.207031 15.5625 0 15.125 0 L 11.6875 0 C 11.363281 0 11.164062 -0.160156 11.09375 -0.484375 L 9.421875 -7.390625 L 6.296875 -7.390625 L 6.296875 -0.5625 C 6.296875 -0.1875 6.109375 0 5.734375 0 L 2.3125 0 C 1.9375 0 1.75 -0.1875 1.75 -0.5625 L 1.75 -23.9375 C 1.75 -24.3125 1.9375 -24.5 2.3125 -24.5 L 10.703125 -24.5 C 12.359375 -24.5 13.613281 -24.070312 14.46875 -23.21875 C 15.320312 -22.363281 15.75 -21.109375 15.75 -19.453125 Z M 6.296875 -11.90625 L 9.796875 -11.90625 C 10.734375 -11.90625 11.203125 -12.367188 11.203125 -13.296875 L 11.203125 -18.578125 C 11.203125 -19.515625 10.734375 -19.984375 9.796875 -19.984375 L 6.296875 -19.984375 Z M 6.296875 -11.90625 "/></g></g></g><g fill="#000000" fill-opacity="1"><g transform="translate(256.233372, 255.299983)"><g><path d="M 6.515625 -4.625 L 6.515625 -23.9375 C 6.515625 -24.3125 6.328125 -24.5 5.953125 -24.5 L 2.3125 -24.5 C 1.9375 -24.5 1.75 -24.3125 1.75 -23.9375 L 1.75 -0.5625 C 1.75 -0.1875 1.9375 0 2.3125 0 L 13.4375 0 C 13.8125 0 14 -0.1875 14 -0.5625 L 14 -4.0625 C 14 -4.4375 13.8125 -4.625 13.4375 -4.625 Z M 6.515625 -4.625 "/></g></g></g><g fill="#000000" fill-opacity="1"><g transform="translate(271.979812, 255.299983)"><g><path d="M 1.75 -0.5625 L 1.75 -23.9375 C 1.75 -24.3125 1.9375 -24.5 2.3125 -24.5 L 10.703125 -24.5 C 12.359375 -24.5 13.613281 -24.066406 14.46875 -23.203125 C 15.320312 -22.335938 15.75 -21.078125 15.75 -19.421875 L 15.75 -5.046875 C 15.75 -3.410156 15.320312 -2.160156 14.46875 -1.296875 C 13.613281 -0.429688 12.359375 0 10.703125 0 L 2.3125 0 C 1.9375 0 1.75 -0.1875 1.75 -0.5625 Z M 6.515625 -4.625 L 9.734375 -4.625 C 10.660156 -4.625 11.125 -5.085938 11.125 -6.015625 L 11.125 -18.4375 C 11.125 -19.394531 10.660156 -19.875 9.734375 -19.875 L 6.515625 -19.875 Z M 6.515625 -4.625 "/></g></g></g><g fill="#000000" fill-opacity="1"><g transform="translate(289.475859, 255.299983)"><g><path d="M 1.75 -24.078125 L 1.75 -27.296875 C 1.75 -27.765625 1.984375 -28 2.453125 -28 L 5.640625 -28 C 6.097656 -28 6.328125 -27.765625 6.328125 -27.296875 L 6.328125 -23.875 C 6.328125 -23.539062 6.25 -23.25 6.09375 -23 L 4.203125 -20.125 C 4.109375 -19.957031 3.96875 -19.875 3.78125 -19.875 L 2.203125 -19.875 C 1.898438 -19.875 1.804688 -20.015625 1.921875 -20.296875 L 3.328125 -23.375 L 2.453125 -23.375 C 1.984375 -23.375 1.75 -23.609375 1.75 -24.078125 Z M 1.75 -24.078125 "/></g></g></g><g fill="#000000" fill-opacity="1"><g transform="translate(297.559038, 255.299983)"><g><path d="M 6.796875 -24.5 L 10.703125 -24.5 C 12.359375 -24.5 13.613281 -24.070312 14.46875 -23.21875 C 15.320312 -22.363281 15.75 -21.109375 15.75 -19.453125 L 15.75 -17.15625 C 15.75 -16.78125 15.5625 -16.59375 15.1875 -16.59375 L 11.65625 -16.59375 C 11.28125 -16.59375 11.09375 -16.78125 11.09375 -17.15625 L 11.09375 -18.625 C 11.09375 -19.550781 10.625 -20.015625 9.6875 -20.015625 L 7.765625 -20.015625 C 6.835938 -20.015625 6.375 -19.550781 6.375 -18.625 L 6.375 -15.640625 L 14.84375 -12.921875 C 15.445312 -12.703125 15.75 -12.269531 15.75 -11.625 L 15.75 -5.046875 C 15.75 -3.410156 15.320312 -2.160156 14.46875 -1.296875 C 13.613281 -0.429688 12.359375 0 10.703125 0 L 6.796875 0 C 5.160156 0 3.910156 -0.429688 3.046875 -1.296875 C 2.179688 -2.160156 1.75 -3.410156 1.75 -5.046875 L 1.75 -7.3125 C 1.75 -7.6875 1.9375 -7.875 2.3125 -7.875 L 5.84375 -7.875 C 6.21875 -7.875 6.40625 -7.6875 6.40625 -7.3125 L 6.40625 -5.84375 C 6.40625 -4.90625 6.875 -4.4375 7.8125 -4.4375 L 9.6875 -4.4375 C 10.625 -4.4375 11.09375 -4.90625 11.09375 -5.84375 L 11.09375 -9.375 L 2.6875 -12.109375 C 2.0625 -12.316406 1.75 -12.75 1.75 -13.40625 L 1.75 -19.453125 C 1.75 -21.109375 2.179688 -22.363281 3.046875 -23.21875 C 3.910156 -24.070312 5.160156 -24.5 6.796875 -24.5 Z M 6.796875 -24.5 "/></g></g></g><g fill="#000000" fill-opacity="1"><g transform="translate(315.055096, 255.299983)"><g/></g></g><g fill="#000000" fill-opacity="1"><g transform="translate(323.803096, 255.299983)"><g><path d="M 10.984375 -14.484375 L 10.984375 -23.9375 C 10.984375 -24.3125 11.171875 -24.5 11.546875 -24.5 L 15.15625 -24.5 C 15.550781 -24.5 15.75 -24.3125 15.75 -23.9375 L 15.75 -0.5625 C 15.75 -0.1875 15.550781 0 15.15625 0 L 11.546875 0 C 11.171875 0 10.984375 -0.1875 10.984375 -0.5625 L 10.984375 -9.875 L 6.515625 -9.875 L 6.515625 -0.5625 C 6.515625 -0.1875 6.328125 0 5.953125 0 L 2.34375 0 C 1.945312 0 1.75 -0.1875 1.75 -0.5625 L 1.75 -23.9375 C 1.75 -24.3125 1.945312 -24.5 2.34375 -24.5 L 5.953125 -24.5 C 6.328125 -24.5 6.515625 -24.3125 6.515625 -23.9375 L 6.515625 -14.484375 Z M 10.984375 -14.484375 "/></g></g></g><g fill="#000000" fill-opacity="1"><g transform="translate(341.299143, 255.299983)"><g><path d="M 2.3125 0 L 5.953125 0 C 6.328125 0 6.515625 -0.1875 6.515625 -0.5625 L 6.515625 -23.9375 C 6.515625 -24.3125 6.328125 -24.5 5.953125 -24.5 L 2.3125 -24.5 C 1.9375 -24.5 1.75 -24.3125 1.75 -23.9375 L 1.75 -0.5625 C 1.75 -0.1875 1.9375 0 2.3125 0 Z M 2.3125 0 "/></g></g></g><g fill="#000000" fill-opacity="1"><g transform="translate(349.557291, 255.299983)"><g><path d="M 1.75 -5.046875 L 1.75 -19.453125 C 1.75 -21.109375 2.179688 -22.363281 3.046875 -23.21875 C 3.910156 -24.070312 5.160156 -24.5 6.796875 -24.5 L 10.703125 -24.5 C 12.335938 -24.5 13.585938 -24.070312 14.453125 -23.21875 C 15.316406 -22.363281 15.75 -21.109375 15.75 -19.453125 L 15.75 -16.875 C 15.75 -16.5 15.5625 -16.3125 15.1875 -16.3125 L 11.90625 -16.3125 C 11.53125 -16.3125 11.34375 -16.5 11.34375 -16.875 L 11.34375 -18.578125 C 11.34375 -19.515625 10.875 -19.984375 9.9375 -19.984375 L 7.703125 -19.984375 C 6.765625 -19.984375 6.296875 -19.515625 6.296875 -18.578125 L 6.296875 -5.921875 C 6.296875 -4.984375 6.765625 -4.515625 7.703125 -4.515625 L 9.9375 -4.515625 C 10.875 -4.515625 11.34375 -4.984375 11.34375 -5.921875 L 11.34375 -8.953125 L 9.515625 -8.953125 C 9.140625 -8.953125 8.953125 -9.140625 8.953125 -9.515625 L 8.953125 -13.015625 C 8.953125 -13.390625 9.140625 -13.578125 9.515625 -13.578125 L 15.1875 -13.578125 C 15.5625 -13.578125 15.75 -13.390625 15.75 -13.015625 L 15.75 -5.046875 C 15.75 -3.410156 15.316406 -2.160156 14.453125 -1.296875 C 13.585938 -0.429688 12.335938 0 10.703125 0 L 6.796875 0 C 5.160156 0 3.910156 -0.429688 3.046875 -1.296875 C 2.179688 -2.160156 1.75 -3.410156 1.75 -5.046875 Z M 1.75 -5.046875 "/></g></g></g><g fill="#000000" fill-opacity="1"><g transform="translate(367.053338, 255.299983)"><g><path d="M 10.984375 -14.484375 L 10.984375 -23.9375 C 10.984375 -24.3125 11.171875 -24.5 11.546875 -24.5 L 15.15625 -24.5 C 15.550781 -24.5 15.75 -24.3125 15.75 -23.9375 L 15.75 -0.5625 C 15.75 -0.1875 15.550781 0 15.15625 0 L 11.546875 0 C 11.171875 0 10.984375 -0.1875 10.984375 -0.5625 L 10.984375 -9.875 L 6.515625 -9.875 L 6.515625 -0.5625 C 6.515625 -0.1875 6.328125 0 5.953125 0 L 2.34375 0 C 1.945312 0 1.75 -0.1875 1.75 -0.5625 L 1.75 -23.9375 C 1.75 -24.3125 1.945312 -24.5 2.34375 -24.5 L 5.953125 -24.5 C 6.328125 -24.5 6.515625 -24.3125 6.515625 -23.9375 L 6.515625 -14.484375 Z M 10.984375 -14.484375 "/></g></g></g><g fill="#000000" fill-opacity="1"><g transform="translate(384.549385, 255.299983)"><g><path d="M 15.71875 -23.9375 L 15.71875 -20.4375 C 15.71875 -20.039062 15.53125 -19.84375 15.15625 -19.84375 L 6.515625 -19.84375 L 6.515625 -14.453125 L 13.09375 -14.453125 C 13.46875 -14.453125 13.65625 -14.253906 13.65625 -13.859375 L 13.65625 -10.390625 C 13.65625 -9.992188 13.46875 -9.796875 13.09375 -9.796875 L 6.515625 -9.796875 L 6.515625 -4.625 L 15.15625 -4.625 C 15.53125 -4.625 15.71875 -4.4375 15.71875 -4.0625 L 15.71875 -0.5625 C 15.71875 -0.1875 15.53125 0 15.15625 0 L 2.28125 0 C 1.925781 0 1.75 -0.1875 1.75 -0.5625 L 1.75 -23.9375 C 1.75 -24.3125 1.925781 -24.5 2.28125 -24.5 L 15.15625 -24.5 C 15.53125 -24.5 15.71875 -24.3125 15.71875 -23.9375 Z M 15.71875 -23.9375 "/></g></g></g><g fill="#000000" fill-opacity="1"><g transform="translate(402.010436, 255.299983)"><g><path d="M 6.796875 -24.5 L 10.703125 -24.5 C 12.359375 -24.5 13.613281 -24.070312 14.46875 -23.21875 C 15.320312 -22.363281 15.75 -21.109375 15.75 -19.453125 L 15.75 -17.15625 C 15.75 -16.78125 15.5625 -16.59375 15.1875 -16.59375 L 11.65625 -16.59375 C 11.28125 -16.59375 11.09375 -16.78125 11.09375 -17.15625 L 11.09375 -18.625 C 11.09375 -19.550781 10.625 -20.015625 9.6875 -20.015625 L 7.765625 -20.015625 C 6.835938 -20.015625 6.375 -19.550781 6.375 -18.625 L 6.375 -15.640625 L 14.84375 -12.921875 C 15.445312 -12.703125 15.75 -12.269531 15.75 -11.625 L 15.75 -5.046875 C 15.75 -3.410156 15.320312 -2.160156 14.46875 -1.296875 C 13.613281 -0.429688 12.359375 0 10.703125 0 L 6.796875 0 C 5.160156 0 3.910156 -0.429688 3.046875 -1.296875 C 2.179688 -2.160156 1.75 -3.410156 1.75 -5.046875 L 1.75 -7.3125 C 1.75 -7.6875 1.9375 -7.875 2.3125 -7.875 L 5.84375 -7.875 C 6.21875 -7.875 6.40625 -7.6875 6.40625 -7.3125 L 6.40625 -5.84375 C 6.40625 -4.90625 6.875 -4.4375 7.8125 -4.4375 L 9.6875 -4.4375 C 10.625 -4.4375 11.09375 -4.90625 11.09375 -5.84375 L 11.09375 -9.375 L 2.6875 -12.109375 C 2.0625 -12.316406 1.75 -12.75 1.75 -13.40625 L 1.75 -19.453125 C 1.75 -21.109375 2.179688 -22.363281 3.046875 -23.21875 C 3.910156 -24.070312 5.160156 -24.5 6.796875 -24.5 Z M 6.796875 -24.5 "/></g></g></g><g fill="#000000" fill-opacity="1"><g transform="translate(419.506483, 255.299983)"><g><path d="M 14.484375 -24.5 L 1.609375 -24.5 C 1.234375 -24.5 1.046875 -24.3125 1.046875 -23.9375 L 1.046875 -20.4375 C 1.046875 -20.0625 1.234375 -19.875 1.609375 -19.875 L 5.671875 -19.875 L 5.671875 -0.5625 C 5.671875 -0.1875 5.859375 0 6.234375 0 L 9.875 0 C 10.25 0 10.4375 -0.1875 10.4375 -0.5625 L 10.4375 -19.875 L 14.484375 -19.875 C 14.859375 -19.875 15.046875 -20.0625 15.046875 -20.4375 L 15.046875 -23.9375 C 15.046875 -24.3125 14.859375 -24.5 14.484375 -24.5 Z M 14.484375 -24.5 "/></g></g></g><g fill="#000000" fill-opacity="1"><g transform="translate(435.602849, 255.299983)"><g/></g></g><g fill="#000000" fill-opacity="1"><g transform="translate(444.350872, 255.299983)"><g><path d="M 12.84375 -24.5 L 16.140625 -24.5 C 16.503906 -24.5 16.6875 -24.3125 16.6875 -23.9375 L 16.6875 -0.5625 C 16.6875 -0.1875 16.503906 0 16.140625 0 L 13.375 0 C 13.09375 0 12.878906 -0.148438 12.734375 -0.453125 L 6.15625 -13.828125 L 6.15625 -0.5625 C 6.15625 -0.1875 5.96875 0 5.59375 0 L 2.3125 0 C 1.9375 0 1.75 -0.1875 1.75 -0.5625 L 1.75 -23.9375 C 1.75 -24.3125 1.9375 -24.5 2.3125 -24.5 L 5.078125 -24.5 C 5.359375 -24.5 5.566406 -24.347656 5.703125 -24.046875 L 12.28125 -10.671875 L 12.28125 -23.9375 C 12.28125 -24.3125 12.46875 -24.5 12.84375 -24.5 Z M 12.84375 -24.5 "/></g></g></g><g fill="#000000" fill-opacity="1"><g transform="translate(462.79172, 255.299983)"><g><path d="M 15.71875 -23.9375 L 15.71875 -20.4375 C 15.71875 -20.039062 15.53125 -19.84375 15.15625 -19.84375 L 6.515625 -19.84375 L 6.515625 -14.453125 L 13.09375 -14.453125 C 13.46875 -14.453125 13.65625 -14.253906 13.65625 -13.859375 L 13.65625 -10.390625 C 13.65625 -9.992188 13.46875 -9.796875 13.09375 -9.796875 L 6.515625 -9.796875 L 6.515625 -4.625 L 15.15625 -4.625 C 15.53125 -4.625 15.71875 -4.4375 15.71875 -4.0625 L 15.71875 -0.5625 C 15.71875 -0.1875 15.53125 0 15.15625 0 L 2.28125 0 C 1.925781 0 1.75 -0.1875 1.75 -0.5625 L 1.75 -23.9375 C 1.75 -24.3125 1.925781 -24.5 2.28125 -24.5 L 15.15625 -24.5 C 15.53125 -24.5 15.71875 -24.3125 15.71875 -23.9375 Z M 15.71875 -23.9375 "/></g></g></g><g fill="#000000" fill-opacity="1"><g transform="translate(480.252748, 255.299983)"><g><path d="M 21.5625 -24.5 L 24.84375 -24.5 C 25.363281 -24.5 25.585938 -24.253906 25.515625 -23.765625 L 22.15625 -0.625 C 22.082031 -0.207031 21.828125 0 21.390625 0 L 17.609375 0 C 17.210938 0 16.953125 -0.207031 16.828125 -0.625 L 13.609375 -14.984375 L 10.359375 -0.625 C 10.265625 -0.207031 10.007812 0 9.59375 0 L 5.734375 0 C 5.296875 0 5.039062 -0.222656 4.96875 -0.671875 L 1.75 -23.765625 C 1.675781 -24.253906 1.898438 -24.5 2.421875 -24.5 L 5.703125 -24.5 C 6.117188 -24.5 6.363281 -24.273438 6.4375 -23.828125 L 8.15625 -9.203125 L 8.328125 -9.203125 L 11.765625 -23.90625 C 11.878906 -24.300781 12.132812 -24.5 12.53125 -24.5 L 14.671875 -24.5 C 15.066406 -24.5 15.320312 -24.300781 15.4375 -23.90625 L 18.859375 -9.203125 L 19.046875 -9.203125 L 20.828125 -23.828125 C 20.898438 -24.273438 21.144531 -24.5 21.5625 -24.5 Z M 21.5625 -24.5 "/></g></g></g><g fill="#000000" fill-opacity="1"><g transform="translate(507.091705, 255.299983)"><g><path d="M 6.796875 -24.5 L 10.703125 -24.5 C 12.359375 -24.5 13.613281 -24.070312 14.46875 -23.21875 C 15.320312 -22.363281 15.75 -21.109375 15.75 -19.453125 L 15.75 -17.15625 C 15.75 -16.78125 15.5625 -16.59375 15.1875 -16.59375 L 11.65625 -16.59375 C 11.28125 -16.59375 11.09375 -16.78125 11.09375 -17.15625 L 11.09375 -18.625 C 11.09375 -19.550781 10.625 -20.015625 9.6875 -20.015625 L 7.765625 -20.015625 C 6.835938 -20.015625 6.375 -19.550781 6.375 -18.625 L 6.375 -15.640625 L 14.84375 -12.921875 C 15.445312 -12.703125 15.75 -12.269531 15.75 -11.625 L 15.75 -5.046875 C 15.75 -3.410156 15.320312 -2.160156 14.46875 -1.296875 C 13.613281 -0.429688 12.359375 0 10.703125 0 L 6.796875 0 C 5.160156 0 3.910156 -0.429688 3.046875 -1.296875 C 2.179688 -2.160156 1.75 -3.410156 1.75 -5.046875 L 1.75 -7.3125 C 1.75 -7.6875 1.9375 -7.875 2.3125 -7.875 L 5.84375 -7.875 C 6.21875 -7.875 6.40625 -7.6875 6.40625 -7.3125 L 6.40625 -5.84375 C 6.40625 -4.90625 6.875 -4.4375 7.8125 -4.4375 L 9.6875 -4.4375 C 10.625 -4.4375 11.09375 -4.90625 11.09375 -5.84375 L 11.09375 -9.375 L 2.6875 -12.109375 C 2.0625 -12.316406 1.75 -12.75 1.75 -13.40625 L 1.75 -19.453125 C 1.75 -21.109375 2.179688 -22.363281 3.046875 -23.21875 C 3.910156 -24.070312 5.160156 -24.5 6.796875 -24.5 Z M 6.796875 -24.5 "/></g></g></g><g fill="#000000" fill-opacity="1"><g transform="translate(524.587752, 255.299983)"><g/></g></g><g fill="#000000" fill-opacity="1"><g transform="translate(533.335752, 255.299983)"><g><path d="M 15.75 -19.453125 L 15.75 -12.421875 C 15.75 -10.390625 15.097656 -8.96875 13.796875 -8.15625 L 15.609375 -0.625 C 15.722656 -0.207031 15.5625 0 15.125 0 L 11.6875 0 C 11.363281 0 11.164062 -0.160156 11.09375 -0.484375 L 9.421875 -7.390625 L 6.296875 -7.390625 L 6.296875 -0.5625 C 6.296875 -0.1875 6.109375 0 5.734375 0 L 2.3125 0 C 1.9375 0 1.75 -0.1875 1.75 -0.5625 L 1.75 -23.9375 C 1.75 -24.3125 1.9375 -24.5 2.3125 -24.5 L 10.703125 -24.5 C 12.359375 -24.5 13.613281 -24.070312 14.46875 -23.21875 C 15.320312 -22.363281 15.75 -21.109375 15.75 -19.453125 Z M 6.296875 -11.90625 L 9.796875 -11.90625 C 10.734375 -11.90625 11.203125 -12.367188 11.203125 -13.296875 L 11.203125 -18.578125 C 11.203125 -19.515625 10.734375 -19.984375 9.796875 -19.984375 L 6.296875 -19.984375 Z M 6.296875 -11.90625 "/></g></g></g><g fill="#000000" fill-opacity="1"><g transform="translate(550.831799, 255.299983)"><g><path d="M 1.75 -5.046875 L 1.75 -19.453125 C 1.75 -21.109375 2.179688 -22.363281 3.046875 -23.21875 C 3.910156 -24.070312 5.160156 -24.5 6.796875 -24.5 L 10.703125 -24.5 C 12.359375 -24.5 13.613281 -24.070312 14.46875 -23.21875 C 15.320312 -22.363281 15.75 -21.109375 15.75 -19.453125 L 15.75 -5.046875 C 15.75 -3.410156 15.320312 -2.160156 14.46875 -1.296875 C 13.613281 -0.429688 12.359375 0 10.703125 0 L 6.796875 0 C 5.160156 0 3.910156 -0.429688 3.046875 -1.296875 C 2.179688 -2.160156 1.75 -3.410156 1.75 -5.046875 Z M 7.703125 -4.515625 L 9.9375 -4.515625 C 10.875 -4.515625 11.34375 -4.984375 11.34375 -5.921875 L 11.34375 -18.578125 C 11.34375 -19.515625 10.875 -19.984375 9.9375 -19.984375 L 7.703125 -19.984375 C 6.765625 -19.984375 6.296875 -19.515625 6.296875 -18.578125 L 6.296875 -5.921875 C 6.296875 -4.984375 6.765625 -4.515625 7.703125 -4.515625 Z M 7.703125 -4.515625 "/></g></g></g><g fill="#000000" fill-opacity="1"><g transform="translate(568.327846, 255.299983)"><g><path d="M 1.75 -5.046875 L 1.75 -19.453125 C 1.75 -21.109375 2.179688 -22.363281 3.046875 -23.21875 C 3.910156 -24.070312 5.160156 -24.5 6.796875 -24.5 L 10.703125 -24.5 C 12.359375 -24.5 13.613281 -24.070312 14.46875 -23.21875 C 15.320312 -22.363281 15.75 -21.109375 15.75 -19.453125 L 15.75 -5.046875 C 15.75 -3.410156 15.320312 -2.160156 14.46875 -1.296875 C 13.613281 -0.429688 12.359375 0 10.703125 0 L 6.796875 0 C 5.160156 0 3.910156 -0.429688 3.046875 -1.296875 C 2.179688 -2.160156 1.75 -3.410156 1.75 -5.046875 Z M 7.703125 -4.515625 L 9.9375 -4.515625 C 10.875 -4.515625 11.34375 -4.984375 11.34375 -5.921875 L 11.34375 -18.578125 C 11.34375 -19.515625 10.875 -19.984375 9.9375 -19.984375 L 7.703125 -19.984375 C 6.765625 -19.984375 6.296875 -19.515625 6.296875 -18.578125 L 6.296875 -5.921875 C 6.296875 -4.984375 6.765625 -4.515625 7.703125 -4.515625 Z M 7.703125 -4.515625 "/></g></g></g><g fill="#000000" fill-opacity="1"><g transform="translate(585.823893, 255.299983)"><g><path d="M 16.375 -24.5 L 21 -24.5 C 21.46875 -24.5 21.703125 -24.265625 21.703125 -23.796875 L 21.703125 -0.703125 C 21.703125 -0.234375 21.46875 0 21 0 L 17.75 0 C 17.28125 0 17.046875 -0.234375 17.046875 -0.703125 L 17.046875 -14.453125 L 16.796875 -14.453125 L 13.515625 -0.59375 C 13.390625 -0.195312 13.128906 0 12.734375 0 L 10.671875 0 C 10.273438 0 10.019531 -0.195312 9.90625 -0.59375 L 6.609375 -14.453125 L 6.375 -14.453125 L 6.375 -0.703125 C 6.375 -0.234375 6.140625 0 5.671875 0 L 2.453125 0 C 1.984375 0 1.75 -0.234375 1.75 -0.703125 L 1.75 -23.796875 C 1.75 -24.265625 1.984375 -24.5 2.453125 -24.5 L 7.0625 -24.5 C 7.46875 -24.5 7.726562 -24.300781 7.84375 -23.90625 L 11.71875 -8.296875 L 15.609375 -23.90625 C 15.722656 -24.300781 15.976562 -24.5 16.375 -24.5 Z M 16.375 -24.5 "/></g></g></g><g fill="#000000" fill-opacity="1"><g transform="translate(609.268624, 255.299983)"><g/></g></g><g fill="#000000" fill-opacity="1"><g transform="translate(618.016625, 255.299983)"><g><path d="M 2.6875 -12.78125 C 2.6875 -14.34375 3.0625 -15.453125 3.8125 -16.109375 C 4.5625 -16.773438 5.484375 -17.109375 6.578125 -17.109375 C 7.648438 -17.109375 8.566406 -16.773438 9.328125 -16.109375 C 10.085938 -15.453125 10.46875 -14.34375 10.46875 -12.78125 C 10.46875 -11.238281 10.085938 -10.128906 9.328125 -9.453125 C 8.566406 -8.773438 7.648438 -8.4375 6.578125 -8.4375 C 5.484375 -8.4375 4.5625 -8.773438 3.8125 -9.453125 C 3.0625 -10.128906 2.6875 -11.238281 2.6875 -12.78125 Z M 2.6875 -12.78125 "/></g></g></g></svg>